<?xml version="1.0" standalone="no"?><!DOCTYPE svg PUBLIC "-//W3C//DTD SVG 1.1//EN" "http://www.w3.org/Graphics/SVG/1.1/DTD/svg11.dtd"><svg t="1585905725073" class="icon" viewBox="0 0 1024 1024" version="1.1" xmlns="http://www.w3.org/2000/svg" p-id="3460" xmlns:xlink="http://www.w3.org/1999/xlink" width="64" height="64"><defs><style type="text/css"></style></defs><path d="M1024.000197 512C1024.000197 230.931692 796.317735 2.126769 515.722043 0.098462c-0.315077 0-0.630154-0.098462-0.945231-0.098462h-5.533538c-0.334769 0-0.630154 0.098462-0.964923 0.098462C227.662966 2.126769 0.000197 230.931692 0.000197 512a508.652308 508.652308 0 0 0 66.166154 251.273846c0.393846 0.748308 0.610462 1.555692 1.043692 2.304l2.776615 4.824616c0.413538 0.728615 0.984615 1.299692 1.437539 2.008615C160.689428 922.860308 324.726351 1024 512.000197 1024c187.273846 0 351.310769-101.12 440.576-251.588923 0.452923-0.728615 1.043692-1.299692 1.476923-2.048l2.737231-4.765539c0.413538-0.728615 0.630154-1.516308 1.024-2.244923A508.908308 508.908308 0 0 0 1024.000197 512z m-39.384615 0c0 60.947692-11.716923 119.158154-32.827077 172.701538a73.944615 73.944615 0 0 0-24.891077-20.992l-317.656616-163.780923A97.831385 97.831385 0 0 0 571.07712 433.742769l16.994462-356.883692a73.728 73.728 0 0 0-5.868308-32.216615C809.629735 78.651077 984.615582 275.259077 984.615582 512z m-66.087385 240.64a33.457231 33.457231 0 0 1-20.007385 14.316308 33.752615 33.752615 0 0 1-26.407384-4.608l-285.164308-183.276308 20.598154-35.702154 301.272615 155.332923c8.546462 4.411077 14.690462 11.716923 17.289846 20.539077 2.363077 8.073846 1.398154 16.64-2.48123 24.477539-1.654154 2.993231-3.347692 5.986462-5.100308 8.920615z m-766.660923 9.688615c-8.093538 5.218462-17.506462 6.892308-26.427077 4.68677a33.476923 33.476923 0 0 1-20.007385-14.41477c-1.752615-2.953846-3.446154-5.927385-5.139692-8.920615a33.595077 33.595077 0 0 1-2.382769-24.418462c2.599385-8.881231 8.723692-16.167385 17.230769-20.558769l301.272615-155.332923 20.598154 35.702154-285.144615 183.256615zM452.923274 512c0-32.571077 26.505846-59.076923 59.076923-59.076923s59.076923 26.505846 59.076923 59.076923-26.505846 59.076923-59.076923 59.076923-59.076923-26.505846-59.076923-59.076923z m38.478769-98.461538l-16.128-338.569847a33.851077 33.851077 0 0 1 9.156923-25.245538c6.124308-6.419692 14.572308-9.984 23.808-10.24 1.260308-0.019692 2.500923-0.098462 3.761231-0.098462s2.500923 0.078769 3.741538 0.098462a33.673846 33.673846 0 0 1 23.788308 10.299077c6.380308 6.695385 9.649231 15.635692 9.196308 25.186461L532.598351 413.538462h-41.196308zM441.738043 44.622769a73.609846 73.609846 0 0 0-5.809231 32.196923v0.019693L452.923274 433.742769a97.929846 97.929846 0 0 0-38.163692 66.185846L97.102966 663.709538c-10.043077 5.179077-18.333538 12.445538-24.871384 21.051077A470.055385 470.055385 0 0 1 39.384812 512C39.384812 275.278769 214.350966 78.670769 441.738043 44.622769zM512.000197 984.615385c-149.228308 0-282.427077-69.592615-369.112615-177.939693a74.24 74.24 0 0 0 30.267076-11.18523v-0.019693l300.228924-192.925538a98.244923 98.244923 0 0 0 77.23323-0.019693l300.228923 192.925539c9.393231 6.045538 19.692308 9.747692 30.306462 11.165538C794.466658 915.003077 661.248197 984.615385 512.000197 984.615385z" fill="#06CCAB" p-id="3461"></path></svg>